<svg width="44" height="44" viewBox="0 0 44 44" fill="none" xmlns="http://www.w3.org/2000/svg">
<path fill-rule="evenodd" clip-rule="evenodd" d="M33.6249 5.58449C33.6249 2.85532 35.837 0.642891 38.5534 0.642891C41.2754 0.642891 43.482 2.84945 43.482 5.58449L43.482 38.4156C43.482 41.1447 41.2699 43.3572 38.5534 43.3572C35.8314 43.3572 33.6249 41.1506 33.6249 38.4156L33.6249 5.58449Z" fill="white"/>
<path fill-rule="evenodd" clip-rule="evenodd" d="M33.6249 5.58449C33.6249 2.85532 35.837 0.642891 38.5534 0.642891C41.2754 0.642891 43.482 2.84945 43.482 5.58449L43.482 38.4156C43.482 41.1447 41.2699 43.3572 38.5534 43.3572C35.8314 43.3572 33.6249 41.1506 33.6249 38.4156L33.6249 5.58449Z" fill="url(#paint0_linear)"/>
<path fill-rule="evenodd" clip-rule="evenodd" d="M0.786133 5.61745C0.786133 2.87004 3.01335 0.642822 5.76077 0.642822C8.50818 0.642822 10.7354 2.87004 10.7354 5.61746V38.3825C10.7354 41.1299 8.50818 43.3571 5.76077 43.3571C3.01335 43.3571 0.786133 41.1299 0.786133 38.3825V5.61745Z" fill="white"/>
<path fill-rule="evenodd" clip-rule="evenodd" d="M0.786133 5.61745C0.786133 2.87004 3.01335 0.642822 5.76077 0.642822C8.50818 0.642822 10.7354 2.87004 10.7354 5.61746V38.3825C10.7354 41.1299 8.50818 43.3571 5.76077 43.3571C3.01335 43.3571 0.786133 41.1299 0.786133 38.3825V5.61745Z" fill="url(#paint1_linear)"/>
<path fill-rule="evenodd" clip-rule="evenodd" d="M42.0412 34.9955C43.9691 36.9235 43.9678 40.0506 42.047 41.9714C40.1223 43.8961 37.0046 43.899 35.0711 41.9655L2.3236 9.21802C0.395638 7.29006 0.396929 4.16291 2.31774 2.2421C4.24247 0.317377 7.3602 0.314513 9.29366 2.24797L42.0412 34.9955Z" fill="white"/>
<defs>
<linearGradient id="paint0_linear" x1="36.1996" y1="22.9575" x2="36.1996" y2="43.3572" gradientUnits="userSpaceOnUse">
<stop stop-color="white" stop-opacity="0.5"/>
<stop offset="1" stop-opacity="0.3"/>
</linearGradient>
<linearGradient id="paint1_linear" x1="8.13657" y1="21.0425" x2="8.13657" y2="0.642822" gradientUnits="userSpaceOnUse">
<stop stop-color="white" stop-opacity="0.5"/>
<stop offset="1" stop-opacity="0.3"/>
</linearGradient>
</defs>
</svg>
