<svg width="228" height="313" viewBox="0 0 228 313" fill="none" xmlns="http://www.w3.org/2000/svg">
<path fill-rule="evenodd" clip-rule="evenodd" d="M179 291C179 299.284 172.284 306 164 306C155.716 306 149 299.284 149 291V191C149 182.716 155.716 176 164 176C172.284 176 179 182.716 179 191V291Z" fill="white"/>
<path fill-rule="evenodd" clip-rule="evenodd" d="M179 291C179 299.284 172.284 306 164 306C155.716 306 149 299.284 149 291V191C149 182.716 155.716 176 164 176C172.284 176 179 182.716 179 191V291Z" fill="url(#paint0_linear)"/>
<path fill-rule="evenodd" clip-rule="evenodd" d="M48.9999 191C48.9999 182.716 55.7156 176 63.9999 176C72.2841 176 78.9999 182.716 78.9999 191V291C78.9999 299.284 72.2841 306 63.9999 306C55.7156 306 48.9999 299.284 48.9999 291V191Z" fill="white"/>
<path fill-rule="evenodd" clip-rule="evenodd" d="M48.9999 191C48.9999 182.716 55.7156 176 63.9999 176C72.2841 176 78.9999 182.716 78.9999 191V291C78.9999 299.284 72.2841 306 63.9999 306C55.7156 306 48.9999 299.284 48.9999 291V191Z" fill="url(#paint1_linear)"/>
<path fill-rule="evenodd" clip-rule="evenodd" d="M174.633 280.569C180.491 286.427 180.491 295.925 174.633 301.783C168.775 307.64 159.277 307.64 153.419 301.783L53.7174 202.081C47.8595 196.223 47.8595 186.725 53.7174 180.867C59.5753 175.01 69.0727 175.01 74.9306 180.867L174.633 280.569Z" fill="white"/>
<path opacity="0.4" d="M184.711 140C145.658 100.948 82.3418 100.948 43.2893 140" stroke="white" stroke-width="10" stroke-linecap="round"/>
<path opacity="0.2" d="M220.066 114C161.487 55.4215 66.5126 55.4215 7.93398 114" stroke="white" stroke-width="10" stroke-linecap="round"/>
<defs>
<linearGradient id="paint0_linear" x1="156.836" y1="243.914" x2="156.836" y2="306" gradientUnits="userSpaceOnUse">
<stop stop-color="white" stop-opacity="0.5"/>
<stop offset="1" stop-opacity="0.3"/>
</linearGradient>
<linearGradient id="paint1_linear" x1="71.1636" y1="238.086" x2="71.1636" y2="176" gradientUnits="userSpaceOnUse">
<stop stop-color="white" stop-opacity="0.5"/>
<stop offset="1" stop-opacity="0.3"/>
</linearGradient>
</defs>
</svg>
