<svg width="37" height="37" viewBox="0 0 37 37" fill="none" xmlns="http://www.w3.org/2000/svg">
<mask id="path-1-inside-1" fill="white">
<path fill-rule="evenodd" clip-rule="evenodd" d="M14.6746 7.14502C14.6746 10.9937 11.5518 14.1143 7.69971 14.1143C3.84741 14.1143 0.724609 10.9937 0.724609 7.14502C0.724609 3.2959 3.84741 0.175781 7.69971 0.175781C11.5518 0.175781 14.6746 3.2959 14.6746 7.14502ZM36.5962 7.14502C36.5962 10.9937 33.4734 14.1143 29.6213 14.1143C25.769 14.1143 22.6462 10.9937 22.6462 7.14502C22.6462 3.2959 25.769 0.175781 29.6213 0.175781C33.4734 0.175781 36.5962 3.2959 36.5962 7.14502ZM7.69971 36.0171C11.5518 36.0171 14.6746 32.8965 14.6746 29.0479C14.6746 25.1987 11.5518 22.0786 7.69971 22.0786C3.84741 22.0786 0.724609 25.1987 0.724609 29.0479C0.724609 32.8965 3.84741 36.0171 7.69971 36.0171ZM36.5962 29.0479C36.5962 32.8965 33.4734 36.0171 29.6213 36.0171C25.769 36.0171 22.6462 32.8965 22.6462 29.0479C22.6462 25.1987 25.769 22.0786 29.6213 22.0786C33.4734 22.0786 36.5962 25.1987 36.5962 29.0479Z"/>
</mask>
<path d="M7.69971 16.1063C12.6505 16.1063 16.6666 12.0953 16.6666 7.14502H12.6825C12.6825 9.89204 10.4531 12.1222 7.69971 12.1222V16.1063ZM-1.26741 7.14502C-1.26741 12.0953 2.74875 16.1063 7.69971 16.1063V12.1222C4.94607 12.1222 2.71663 9.89199 2.71663 7.14502H-1.26741ZM7.69971 -1.81624C2.74884 -1.81624 -1.26741 2.19415 -1.26741 7.14502H2.71663C2.71663 4.39765 4.94598 2.1678 7.69971 2.1678V-1.81624ZM16.6666 7.14502C16.6666 2.19419 12.6504 -1.81624 7.69971 -1.81624V2.1678C10.4531 2.1678 12.6825 4.3976 12.6825 7.14502H16.6666ZM29.6213 16.1063C34.5721 16.1063 38.5882 12.0953 38.5882 7.14502H34.6042C34.6042 9.89204 32.3747 12.1222 29.6213 12.1222V16.1063ZM20.6542 7.14502C20.6542 12.0953 24.6704 16.1063 29.6213 16.1063V12.1222C26.8677 12.1222 24.6383 9.89199 24.6383 7.14502H20.6542ZM29.6213 -1.81624C24.6705 -1.81624 20.6542 2.19415 20.6542 7.14502H24.6383C24.6383 4.39765 26.8676 2.1678 29.6213 2.1678V-1.81624ZM38.5882 7.14502C38.5882 2.19419 34.572 -1.81624 29.6213 -1.81624V2.1678C32.3748 2.1678 34.6042 4.3976 34.6042 7.14502H38.5882ZM12.6825 29.0479C12.6825 31.7949 10.4531 34.0251 7.69971 34.0251V38.0091C12.6505 38.0091 16.6666 33.9981 16.6666 29.0479H12.6825ZM7.69971 24.0706C10.4531 24.0706 12.6825 26.3004 12.6825 29.0479H16.6666C16.6666 24.097 12.6504 20.0866 7.69971 20.0866V24.0706ZM2.71663 29.0479C2.71663 26.3005 4.94598 24.0706 7.69971 24.0706V20.0866C2.74884 20.0866 -1.26741 24.097 -1.26741 29.0479H2.71663ZM7.69971 34.0251C4.94607 34.0251 2.71663 31.7948 2.71663 29.0479H-1.26741C-1.26741 33.9981 2.74875 38.0091 7.69971 38.0091V34.0251ZM29.6213 38.0091C34.5721 38.0091 38.5882 33.9981 38.5882 29.0479H34.6042C34.6042 31.7949 32.3747 34.0251 29.6213 34.0251V38.0091ZM20.6542 29.0479C20.6542 33.9981 24.6704 38.0091 29.6213 38.0091V34.0251C26.8677 34.0251 24.6383 31.7948 24.6383 29.0479H20.6542ZM29.6213 20.0866C24.6705 20.0866 20.6542 24.097 20.6542 29.0479H24.6383C24.6383 26.3005 26.8676 24.0706 29.6213 24.0706V20.0866ZM38.5882 29.0479C38.5882 24.097 34.572 20.0866 29.6213 20.0866V24.0706C32.3748 24.0706 34.6042 26.3004 34.6042 29.0479H38.5882Z" fill="white" mask="url(#path-1-inside-1)"/>
</svg>
